<?xml version="1.0" standalone="no"?>
<!DOCTYPE svg PUBLIC "-//W3C//DTD SVG 20010904//EN"
 "http://www.w3.org/TR/2001/REC-SVG-20010904/DTD/svg10.dtd">
<svg version="1.0" xmlns="http://www.w3.org/2000/svg"
 width="216.000000pt" height="216.000000pt" viewBox="0 0 216.000000 216.000000"
 preserveAspectRatio="xMidYMid meet">

<g transform="translate(0.000000,216.000000) scale(0.100000,-0.100000)"
fill="#000000" stroke="none">
<path d="M244 1829 c-4 -7 0 -9 14 -5 25 8 291 -95 309 -120 7 -9 22 -46 33
-80 l22 -64 561 0 c616 0 609 0 615 -57 2 -19 -29 -131 -78 -285 -131 -409
-132 -411 -160 -425 -19 -9 -114 -13 -372 -13 l-348 0 -25 -50 -25 -50 438 0
c327 0 441 -3 450 -12 7 -7 12 -24 12 -38 0 -37 -18 -50 -67 -50 -47 0 -49 -3
-28 -40 36 -62 0 -168 -70 -207 -52 -29 -109 -29 -160 0 -72 41 -107 143 -70
207 8 14 14 28 15 33 0 4 -70 7 -155 7 l-156 0 16 -30 c19 -37 19 -113 0 -150
-40 -78 -138 -109 -219 -71 -88 43 -114 129 -71 234 6 13 2 17 -18 17 -31 0
-57 24 -57 51 0 11 23 64 50 118 28 54 50 105 50 113 0 26 -261 742 -277 760
-8 9 -64 36 -124 59 -60 23 -114 48 -120 55 -7 8 -9 30 -6 52 l6 37 -19 -24
c-11 -13 -21 -33 -21 -45 -6 -105 -16 -115 -116 -116 l-73 0 0 -727 0 -728 24
-51 c27 -58 80 -106 135 -123 28 -8 290 -11 927 -11 841 0 891 1 929 19 55 25
120 100 134 156 8 30 11 264 11 754 l0 710 -167 6 c-93 3 -421 8 -730 11 -356
3 -563 8 -563 14 0 6 -7 10 -16 10 -9 0 -24 8 -33 18 -39 42 -95 73 -195 106
-107 36 -198 47 -212 25z"/>
<path d="M707 1325 l35 -105 44 0 c43 0 44 1 44 33 1 63 37 119 106 164 15 9
-9 12 -123 12 l-142 1 36 -105z"/>
<path d="M1105 1420 c27 -12 35 -12 35 0 0 6 -12 10 -27 9 -25 0 -26 -1 -8 -9z"/>
<path d="M1476 1415 c-3 -9 0 -15 9 -15 19 0 55 -48 55 -74 0 -11 -9 -40 -20
-63 l-19 -43 48 0 48 0 17 58 c9 31 23 78 31 105 l14 47 -88 0 c-70 0 -90 -3
-95 -15z"/>
<path d="M1203 1358 c-13 -6 -23 -17 -23 -25 0 -8 -14 -28 -30 -45 -25 -24
-35 -28 -60 -23 -27 6 -30 4 -30 -17 0 -21 4 -23 65 -25 36 -2 65 0 65 5 0 4
9 37 19 75 11 37 19 67 18 66 -1 0 -12 -5 -24 -11z"/>
<path d="M1390 1278 c0 -19 2 -20 10 -8 13 19 13 30 0 30 -5 0 -10 -10 -10
-22z"/>
<path d="M819 1013 l38 -108 56 -3 c53 -3 57 -2 71 27 12 23 14 43 8 82 -6 46
-11 54 -34 60 -15 4 -40 16 -57 28 -19 14 -44 21 -75 21 l-45 0 38 -107z"/>
<path d="M1403 1081 c-28 -33 -34 -50 -39 -111 l-7 -71 73 3 74 3 31 108 32
107 -66 0 c-64 0 -67 -1 -98 -39z"/>
<path d="M1098 1073 c-10 -2 -18 -12 -18 -20 0 -14 3 -14 20 2 17 15 26 28 18
24 -2 -1 -11 -3 -20 -6z"/>
<path d="M1231 920 l-23 -20 26 0 c19 0 26 5 26 20 0 24 1 24 -29 0z"/>
<path d="M816 518 c-34 -49 -7 -108 49 -108 92 0 95 120 2 128 -27 2 -39 -2
-51 -20z"/>
<path d="M1397 522 c-22 -25 -21 -75 1 -95 25 -22 75 -21 95 1 22 25 21 75 -1
95 -25 22 -75 21 -95 -1z"/>
</g>
</svg>
