<svg xmlns="http://www.w3.org/2000/svg" xmlns:xlink="http://www.w3.org/1999/xlink" width="100" zoomAndPan="magnify" viewBox="0 0 75 74.999997" height="100" preserveAspectRatio="xMidYMid meet" version="1.0"><defs><clipPath id="f206d05d8f"><path d="M 49 59 L 66 59 L 66 74.84375 L 49 74.84375 Z M 49 59 " clip-rule="nonzero"/></clipPath><clipPath id="f26cd58aa8"><path d="M 19 59 L 35 59 L 35 74.84375 L 19 74.84375 Z M 19 59 " clip-rule="nonzero"/></clipPath><clipPath id="4fc512203b"><path d="M 0.671875 7 L 66 7 L 66 57 L 0.671875 57 Z M 0.671875 7 " clip-rule="nonzero"/></clipPath><clipPath id="0c82ab9b59"><path d="M 40 1.34375 L 74.171875 1.34375 L 74.171875 36 L 40 36 Z M 40 1.34375 " clip-rule="nonzero"/></clipPath><clipPath id="2fd445677f"><path d="M 38.316406 0 L 75 0 L 75 36.683594 L 38.316406 36.683594 Z M 38.316406 0 " clip-rule="nonzero"/></clipPath><clipPath id="bdc48f8d30"><path d="M 56.660156 0 C 46.53125 0 38.316406 8.210938 38.316406 18.339844 C 38.316406 28.46875 46.53125 36.683594 56.660156 36.683594 C 66.789062 36.683594 75 28.46875 75 18.339844 C 75 8.210938 66.789062 0 56.660156 0 Z M 56.660156 0 " clip-rule="nonzero"/></clipPath><clipPath id="4fdf90d0ee"><path d="M 0.316406 0 L 37 0 L 37 36.683594 L 0.316406 36.683594 Z M 0.316406 0 " clip-rule="nonzero"/></clipPath><clipPath id="02ab35bcf8"><path d="M 18.660156 0 C 8.53125 0 0.316406 8.210938 0.316406 18.339844 C 0.316406 28.46875 8.53125 36.683594 18.660156 36.683594 C 28.789062 36.683594 37 28.46875 37 18.339844 C 37 8.210938 28.789062 0 18.660156 0 Z M 18.660156 0 " clip-rule="nonzero"/></clipPath><clipPath id="04edf4fb1c"><rect x="0" width="37" y="0" height="37"/></clipPath><clipPath id="cfd113a92f"><path d="M 39.664062 1.34375 L 73.65625 1.34375 L 73.65625 35.335938 L 39.664062 35.335938 Z M 39.664062 1.34375 " clip-rule="nonzero"/></clipPath><clipPath id="cb65683ec5"><path d="M 56.660156 1.34375 C 47.273438 1.34375 39.664062 8.953125 39.664062 18.339844 C 39.664062 27.726562 47.273438 35.335938 56.660156 35.335938 C 66.046875 35.335938 73.65625 27.726562 73.65625 18.339844 C 73.65625 8.953125 66.046875 1.34375 56.660156 1.34375 Z M 56.660156 1.34375 " clip-rule="nonzero"/></clipPath><clipPath id="49d70221c4"><path d="M 0.664062 0.34375 L 34.65625 0.34375 L 34.65625 34.335938 L 0.664062 34.335938 Z M 0.664062 0.34375 " clip-rule="nonzero"/></clipPath><clipPath id="84a1535755"><path d="M 17.660156 0.34375 C 8.273438 0.34375 0.664062 7.953125 0.664062 17.339844 C 0.664062 26.726562 8.273438 34.335938 17.660156 34.335938 C 27.046875 34.335938 34.65625 26.726562 34.65625 17.339844 C 34.65625 7.953125 27.046875 0.34375 17.660156 0.34375 Z M 17.660156 0.34375 " clip-rule="nonzero"/></clipPath><clipPath id="6574350a79"><rect x="0" width="35" y="0" height="35"/></clipPath><clipPath id="d0e3b1c09d"><path d="M 46.648438 10.695312 L 66.898438 10.695312 L 66.898438 25.695312 L 46.648438 25.695312 Z M 46.648438 10.695312 " clip-rule="nonzero"/></clipPath></defs><g clip-path="url(#f206d05d8f)"><path fill="#46a441" d="M 65.117188 67.324219 C 65.117188 67.828125 65.070312 68.328125 64.972656 68.824219 C 64.871094 69.316406 64.726562 69.796875 64.535156 70.261719 C 64.34375 70.726562 64.105469 71.167969 63.824219 71.589844 C 63.546875 72.007812 63.226562 72.394531 62.871094 72.75 C 62.515625 73.105469 62.128906 73.425781 61.707031 73.703125 C 61.289062 73.984375 60.847656 74.222656 60.382812 74.414062 C 59.917969 74.605469 59.4375 74.753906 58.941406 74.851562 C 58.449219 74.949219 57.949219 74.996094 57.445312 74.996094 C 56.941406 74.996094 56.445312 74.949219 55.949219 74.851562 C 55.457031 74.753906 54.976562 74.605469 54.511719 74.414062 C 54.046875 74.222656 53.601562 73.984375 53.183594 73.703125 C 52.765625 73.425781 52.378906 73.105469 52.023438 72.75 C 51.664062 72.394531 51.347656 72.007812 51.066406 71.589844 C 50.789062 71.167969 50.550781 70.726562 50.359375 70.261719 C 50.164062 69.796875 50.019531 69.316406 49.921875 68.824219 C 49.824219 68.328125 49.773438 67.828125 49.773438 67.324219 C 49.773438 66.820312 49.824219 66.324219 49.921875 65.828125 C 50.019531 65.335938 50.164062 64.855469 50.359375 64.390625 C 50.550781 63.925781 50.789062 63.480469 51.066406 63.0625 C 51.347656 62.644531 51.664062 62.257812 52.023438 61.902344 C 52.378906 61.542969 52.765625 61.226562 53.183594 60.945312 C 53.601562 60.667969 54.046875 60.429688 54.511719 60.238281 C 54.976562 60.046875 55.457031 59.898438 55.949219 59.800781 C 56.445312 59.703125 56.941406 59.652344 57.445312 59.652344 C 57.949219 59.652344 58.449219 59.703125 58.941406 59.800781 C 59.4375 59.898438 59.917969 60.046875 60.382812 60.238281 C 60.847656 60.429688 61.289062 60.667969 61.707031 60.945312 C 62.128906 61.226562 62.515625 61.542969 62.871094 61.902344 C 63.226562 62.257812 63.546875 62.644531 63.824219 63.0625 C 64.105469 63.480469 64.34375 63.925781 64.535156 64.390625 C 64.726562 64.855469 64.871094 65.335938 64.972656 65.828125 C 65.070312 66.324219 65.117188 66.820312 65.117188 67.324219 Z M 65.117188 67.324219 " fill-opacity="1" fill-rule="nonzero"/></g><g clip-path="url(#f26cd58aa8)"><path fill="#46a441" d="M 34.429688 67.324219 C 34.429688 67.828125 34.382812 68.328125 34.28125 68.824219 C 34.183594 69.316406 34.039062 69.796875 33.847656 70.261719 C 33.652344 70.726562 33.417969 71.167969 33.136719 71.589844 C 32.855469 72.007812 32.539062 72.394531 32.183594 72.75 C 31.828125 73.105469 31.4375 73.425781 31.019531 73.703125 C 30.601562 73.984375 30.160156 74.222656 29.695312 74.414062 C 29.230469 74.605469 28.75 74.753906 28.253906 74.851562 C 27.761719 74.949219 27.261719 74.996094 26.757812 74.996094 C 26.253906 74.996094 25.753906 74.949219 25.261719 74.851562 C 24.765625 74.753906 24.289062 74.605469 23.820312 74.414062 C 23.355469 74.222656 22.914062 73.984375 22.496094 73.703125 C 22.078125 73.425781 21.6875 73.105469 21.332031 72.75 C 20.976562 72.394531 20.660156 72.007812 20.378906 71.589844 C 20.097656 71.167969 19.863281 70.726562 19.671875 70.261719 C 19.476562 69.796875 19.332031 69.316406 19.234375 68.824219 C 19.136719 68.328125 19.085938 67.828125 19.085938 67.324219 C 19.085938 66.820312 19.136719 66.324219 19.234375 65.828125 C 19.332031 65.335938 19.476562 64.855469 19.671875 64.390625 C 19.863281 63.925781 20.097656 63.480469 20.378906 63.0625 C 20.660156 62.644531 20.976562 62.257812 21.332031 61.902344 C 21.6875 61.542969 22.078125 61.226562 22.496094 60.945312 C 22.914062 60.667969 23.355469 60.429688 23.820312 60.238281 C 24.289062 60.046875 24.765625 59.898438 25.261719 59.800781 C 25.753906 59.703125 26.253906 59.652344 26.757812 59.652344 C 27.261719 59.652344 27.761719 59.703125 28.253906 59.800781 C 28.75 59.898438 29.230469 60.046875 29.695312 60.238281 C 30.160156 60.429688 30.601562 60.667969 31.019531 60.945312 C 31.4375 61.226562 31.828125 61.542969 32.183594 61.902344 C 32.539062 62.257812 32.855469 62.644531 33.136719 63.0625 C 33.417969 63.480469 33.652344 63.925781 33.847656 64.390625 C 34.039062 64.855469 34.183594 65.335938 34.28125 65.828125 C 34.382812 66.324219 34.429688 66.820312 34.429688 67.324219 Z M 34.429688 67.324219 " fill-opacity="1" fill-rule="nonzero"/></g><g clip-path="url(#4fc512203b)"><path fill="#46a441" d="M 63.585938 56.585938 L 28.167969 56.585938 C 23.0625 56.585938 18.636719 52.953125 17.632812 47.953125 L 10.15625 10.550781 L 2.207031 10.550781 C 1.359375 10.550781 0.671875 9.863281 0.671875 9.019531 C 0.671875 8.171875 1.359375 7.484375 2.207031 7.484375 L 11.414062 7.484375 C 12.144531 7.484375 12.773438 8 12.917969 8.71875 L 20.644531 47.347656 C 21.359375 50.921875 24.519531 53.515625 28.167969 53.515625 L 63.585938 53.515625 C 64.429688 53.515625 65.117188 54.203125 65.117188 55.050781 C 65.117188 55.898438 64.429688 56.585938 63.585938 56.585938 Z M 63.585938 56.585938 " fill-opacity="1" fill-rule="nonzero"/></g><path fill="#46a441" d="M 68.101562 35.960938 C 67.644531 35.6875 67.082031 35.671875 66.613281 35.917969 C 63.742188 37.414062 60.660156 38.171875 57.445312 38.171875 C 46.449219 38.171875 37.511719 29.855469 37.527344 18.605469 C 37.527344 18.582031 37.542969 18.289062 37.546875 18.269531 C 37.558594 17.847656 37.394531 17.4375 37.097656 17.140625 C 36.796875 16.839844 36.382812 16.679688 35.964844 16.691406 L 14.4375 16.691406 C 13.988281 16.703125 13.566406 16.914062 13.289062 17.265625 C 13.007812 17.609375 12.890625 18.066406 12.976562 18.507812 L 17.578125 43.058594 C 17.714844 43.785156 18.347656 44.308594 19.085938 44.308594 L 61.234375 44.308594 C 65.09375 44.308594 68.367188 41.421875 68.84375 37.589844 C 68.851562 37.511719 68.851562 37.320312 68.851562 37.242188 C 68.839844 36.714844 68.554688 36.230469 68.101562 35.960938 Z M 68.101562 35.960938 " fill-opacity="1" fill-rule="nonzero"/><g clip-path="url(#0c82ab9b59)"><path fill="#46a441" d="M 57.445312 1.34375 C 48.140625 1.34375 40.566406 8.917969 40.566406 18.222656 C 40.566406 27.53125 48.140625 35.101562 57.445312 35.101562 C 66.753906 35.101562 74.324219 27.53125 74.324219 18.222656 C 74.324219 8.917969 66.753906 1.34375 57.445312 1.34375 Z M 67.738281 13.171875 L 55.464844 25.449219 C 55.164062 25.746094 54.769531 25.894531 54.378906 25.894531 C 53.984375 25.894531 53.59375 25.746094 53.292969 25.449219 L 47.152344 19.3125 C 46.554688 18.710938 46.554688 17.738281 47.152344 17.140625 C 47.753906 16.542969 48.726562 16.542969 49.324219 17.140625 L 54.378906 22.191406 L 65.566406 11.003906 C 66.164062 10.40625 67.136719 10.40625 67.738281 11.003906 C 68.335938 11.601562 68.335938 12.570312 67.738281 13.171875 Z M 67.738281 13.171875 " fill-opacity="1" fill-rule="nonzero"/></g><g clip-path="url(#2fd445677f)"><g clip-path="url(#bdc48f8d30)"><g transform="matrix(1, 0, 0, 1, 38, -0.000000000000001893)"><g clip-path="url(#04edf4fb1c)"><g clip-path="url(#4fdf90d0ee)"><g clip-path="url(#02ab35bcf8)"><path fill="#ffffff" d="M 0.316406 0 L 37 0 L 37 36.683594 L 0.316406 36.683594 Z M 0.316406 0 " fill-opacity="1" fill-rule="nonzero"/></g></g></g></g></g></g><g clip-path="url(#cfd113a92f)"><g clip-path="url(#cb65683ec5)"><g transform="matrix(1, 0, 0, 1, 39, 1)"><g clip-path="url(#6574350a79)"><g clip-path="url(#49d70221c4)"><g clip-path="url(#84a1535755)"><path fill="#7b7b7b" d="M 0.664062 0.34375 L 34.65625 0.34375 L 34.65625 34.335938 L 0.664062 34.335938 Z M 0.664062 0.34375 " fill-opacity="1" fill-rule="nonzero"/></g></g></g></g></g></g><g clip-path="url(#d0e3b1c09d)"><path fill="#ffffff" d="M 65.359375 10.703125 C 65.046875 10.710938 64.78125 10.828125 64.5625 11.054688 L 52.582031 23.03125 L 48.75 19.199219 C 48.644531 19.085938 48.515625 19 48.375 18.9375 C 48.230469 18.875 48.078125 18.84375 47.921875 18.84375 C 47.765625 18.839844 47.617188 18.871094 47.472656 18.929688 C 47.328125 18.988281 47.199219 19.074219 47.089844 19.183594 C 46.976562 19.292969 46.894531 19.421875 46.835938 19.566406 C 46.773438 19.710938 46.746094 19.863281 46.75 20.019531 C 46.75 20.175781 46.78125 20.324219 46.84375 20.46875 C 46.90625 20.613281 46.992188 20.738281 47.105469 20.847656 L 51.761719 25.5 C 51.871094 25.609375 51.996094 25.695312 52.136719 25.753906 C 52.28125 25.8125 52.429688 25.839844 52.582031 25.839844 C 52.738281 25.839844 52.886719 25.8125 53.027344 25.753906 C 53.171875 25.695312 53.296875 25.609375 53.40625 25.5 L 66.207031 12.699219 C 66.378906 12.53125 66.488281 12.332031 66.535156 12.097656 C 66.582031 11.859375 66.5625 11.632812 66.46875 11.410156 C 66.375 11.191406 66.226562 11.015625 66.023438 10.886719 C 65.820312 10.757812 65.601562 10.695312 65.359375 10.703125 Z M 65.359375 10.703125 " fill-opacity="1" fill-rule="nonzero"/></g></svg>